<svg width="24" height="24" viewBox="0 0 24 24" fill="none" xmlns="http://www.w3.org/2000/svg">
<path d="M5.1856 0C6.11634 0 7.08033 0 8.01108 0C9.4072 0 10.3712 0.963989 10.3712 2.36011C10.3712 4.22161 10.3712 6.11634 10.3712 7.97784C10.3712 9.34072 9.4072 10.3047 8.04432 10.3047C6.14958 10.3047 4.25485 10.3047 2.32687 10.3047C0.930748 10.3047 0 9.34072 0 7.97784C0 6.0831 0 4.22161 0 2.32687C0 0.963989 0.963989 0 2.32687 0C3.29086 0 4.25485 0 5.1856 0ZM8.64266 5.15235C8.64266 4.22161 8.64266 3.3241 8.64266 2.39335C8.64266 1.89474 8.47645 1.72853 7.97784 1.72853C6.11634 1.72853 4.25485 1.72853 2.39335 1.72853C1.92798 1.72853 1.72853 1.92798 1.72853 2.36011C1.72853 4.22161 1.72853 6.04986 1.72853 7.91136C1.72853 8.37673 1.92798 8.54294 2.39335 8.57618C4.25485 8.57618 6.14958 8.57618 8.01108 8.57618C8.47645 8.57618 8.64266 8.40997 8.64266 7.9446C8.64266 7.01385 8.64266 6.0831 8.64266 5.15235Z" fill="#3A3A3A"/>
<path d="M18.8145 24C17.8838 24 16.9198 24 15.989 24C14.5929 24 13.6289 23.036 13.6289 21.6399C13.6289 19.7784 13.6289 17.9169 13.6289 16.0554C13.6289 14.6925 14.5929 13.7285 15.9558 13.6953C17.8505 13.6953 19.7785 13.6953 21.6732 13.6953C23.0361 13.6953 24.0001 14.6593 24.0001 16.0222C24.0001 17.9169 24.0001 19.8116 24.0001 21.6731C24.0001 23.036 23.0361 23.9667 21.6732 24C20.7425 24 19.7785 24 18.8145 24ZM18.8145 22.2715C19.7452 22.2715 20.676 22.2715 21.6067 22.2715C22.0721 22.2715 22.2716 22.072 22.2716 21.6066C22.2716 19.7784 22.2716 17.9169 22.2716 16.0886C22.2716 15.6233 22.1054 15.4238 21.6067 15.4238C19.7453 15.4238 17.8838 15.4238 16.0223 15.4238C15.5569 15.4238 15.3907 15.59 15.3907 16.0554C15.3907 17.9169 15.3907 19.7451 15.3907 21.6066C15.3907 22.072 15.5569 22.2382 16.0223 22.2382C16.953 22.2715 17.8838 22.2715 18.8145 22.2715Z" fill="#3A3A3A"/>
<path d="M5.2188 24C4.28805 24 3.3573 24 2.42656 24C0.997192 24 0.0664441 23.036 0.0332031 21.6399C0.0332031 19.7784 0.0332031 17.9169 0.0332031 16.0887C0.0332031 14.6925 0.997192 13.7285 2.39331 13.7285C4.28805 13.7285 6.18279 13.7285 8.04428 13.7285C9.47365 13.7285 10.4044 14.6593 10.4044 16.0887C10.4044 17.9502 10.4044 19.8116 10.4044 21.6731C10.4044 23.0693 9.44041 24.0333 8.04428 24.0333C7.08029 24 6.14955 24 5.2188 24ZM5.2188 22.2715C6.14955 22.2715 7.08029 22.2715 8.01104 22.2715C8.47642 22.2715 8.64262 22.072 8.64262 21.6067C8.64262 19.7452 8.64262 17.9169 8.64262 16.0554C8.64262 15.6233 8.44318 15.4238 8.01104 15.4238C6.11631 15.4238 4.25481 15.4238 2.36007 15.4238C1.8947 15.4238 1.72849 15.59 1.72849 16.0554C1.72849 17.9169 1.72849 19.7452 1.72849 21.6067C1.72849 22.1053 1.8947 22.2715 2.39331 22.2715C3.3573 22.2715 4.28805 22.2715 5.2188 22.2715Z" fill="#3A3A3A"/>
<path d="M24 5.15235C24 8.01108 21.6732 10.3047 18.7812 10.3047C15.9889 10.2715 13.6953 7.9446 13.6953 5.15235C13.7286 2.26039 16.0222 0 18.9474 0C21.7396 0 24.0333 2.36011 24 5.15235ZM15.4571 5.15235C15.4571 7.04709 16.9862 8.57618 18.8809 8.57618C20.7756 8.57618 22.3047 7.01385 22.2715 5.15235C22.2715 3.3241 20.7092 1.76177 18.8809 1.76177C16.9862 1.72853 15.4571 3.25762 15.4571 5.15235Z" fill="#3A3A3A"/>
</svg>
