<svg width="16" height="16" viewBox="0 0 16 16" fill="none" xmlns="http://www.w3.org/2000/svg">
<path d="M15.9993 7.5C15.9993 7.89783 15.8412 8.27936 15.5599 8.56066C15.2786 8.84196 14.8971 9 14.4993 9C14.1014 9 13.7199 8.84196 13.4386 8.56066C13.1573 8.27936 12.9993 7.89783 12.9993 7.5V1.5C12.9993 1.10218 13.1573 0.720645 13.4386 0.43934C13.7199 0.158036 14.1014 3.73082e-07 14.4993 3.73082e-07C14.8971 3.73082e-07 15.2786 0.158036 15.5599 0.43934C15.8412 0.720645 15.9993 1.10218 15.9993 1.5V7.5ZM11.9993 7.667V2.237C11.9995 1.86544 11.8963 1.50116 11.7011 1.18499C11.5059 0.86882 11.2265 0.613273 10.8943 0.447L10.8443 0.422C10.2885 0.144217 9.67561 -0.000267964 9.05427 3.73082e-07H3.63927C3.17674 -0.000182829 2.72845 0.159952 2.37071 0.45314C2.01298 0.746328 1.76792 1.15444 1.67727 1.608L0.477269 7.608C0.419262 7.89821 0.426386 8.19768 0.498124 8.4848C0.569863 8.77193 0.70443 9.03955 0.892119 9.26838C1.07981 9.4972 1.31594 9.68152 1.58348 9.80803C1.85103 9.93455 2.14332 10.0001 2.43927 10H5.99927V14C5.99927 14.5304 6.20998 15.0391 6.58506 15.4142C6.96013 15.7893 7.46884 16 7.99927 16C8.26449 16 8.51884 15.8946 8.70638 15.7071C8.89391 15.5196 8.99927 15.2652 8.99927 15V14.333C8.99927 13.4675 9.27998 12.6254 9.79927 11.933L11.1993 10.067C11.7186 9.37462 11.9993 8.53248 11.9993 7.667Z" fill="#3A3A3A"/>
</svg>
