<svg width="20" height="19" viewBox="0 0 20 19" fill="none" xmlns="http://www.w3.org/2000/svg">
<path d="M0.538221 13.7097C2.23505 11.351 5.51166 11.1545 7.12555 11.3676C6.67671 10.8924 5.54535 10.0081 6.34366 8.55035C2.70073 8.99232 1.53653 6.78124 1.37022 5.04489C1.03759 2.1294 3.6321 0.0331682 6.29355 0H12.1819C11.9824 0.180352 11.0009 0.819255 10.7681 0.819255L9.22112 0.835425C13.1634 4.48808 9.33733 7.55116 8.55544 8.18965C6.97523 10.0732 11.9323 11.0069 11.6662 14.201C11.6662 17.0999 9.18785 19 5.31209 19C1.0039 18.9838 -1.0584 16.347 0.538221 13.7097ZM9.17143 17.2313C10.7184 16.0683 10.3525 14.3486 9.15459 13.2018C8.43923 12.514 7.57439 11.8589 5.74451 12.0716C3.59841 12.3174 2.03505 13.3328 2.11842 14.9216C2.56726 18.296 7.50786 18.3777 9.17101 17.2147V17.2313H9.17143ZM8.12344 7.32188C9.90322 5.88031 8.25649 0.852423 5.82787 0.852423C4.28094 0.852423 3.48262 1.94946 3.41568 3.50588C3.29947 6.3882 5.97777 9.05824 8.12344 7.32188ZM15.9912 9.15609L13.3133 9.17267V7.84594H15.9583V5.24182H17.3057V7.84636L19.9836 7.86253L20 9.17309H17.3057V11.7938L15.9748 11.8104L15.9912 9.15609Z" fill="#D6493C"/>
</svg>
