<svg width="17" height="15" viewBox="0 0 17 15" fill="none" xmlns="http://www.w3.org/2000/svg">
<path fill-rule="evenodd" clip-rule="evenodd" d="M1.17212 2.17184C1.92223 1.42195 2.93947 1.00069 4.00012 1.00069C5.06078 1.00069 6.07801 1.42195 6.82812 2.17184L8.00012 3.34284L9.17212 2.17184C9.54111 1.7898 9.98249 1.48507 10.4705 1.27543C10.9585 1.06579 11.4834 0.95545 12.0145 0.950835C12.5456 0.946219 13.0724 1.04743 13.5639 1.24855C14.0555 1.44967 14.5021 1.74669 14.8777 2.12226C15.2533 2.49783 15.5503 2.94443 15.7514 3.43602C15.9525 3.92761 16.0537 4.45432 16.0491 4.98544C16.0445 5.51656 15.9342 6.04144 15.7245 6.52945C15.5149 7.01747 15.2102 7.45885 14.8281 7.82784L8.00012 14.6568L1.17212 7.82784C0.422238 7.07773 0.000976562 6.06049 0.000976562 4.99984C0.000976563 3.93918 0.422238 2.92195 1.17212 2.17184Z" fill="#DC0D0D"/>
</svg>
