<svg width="24" height="24" viewBox="0 0 24 24" fill="none" xmlns="http://www.w3.org/2000/svg">
<g clip-path="url(#clip0_360_34)">
<path d="M22.3329 24C22.0897 23.8266 21.8119 23.6879 21.6035 23.4798C20.631 22.5434 19.6585 21.5723 18.7207 20.6012C18.6512 20.5318 18.6165 20.4624 18.5818 20.3931C18.4776 20.4624 18.4081 20.4971 18.3734 20.5318C16.1852 21.9884 13.8234 22.3353 11.288 21.6416C11.1491 21.6069 11.0101 21.5723 10.8712 21.5723C7.71056 21.5723 4.58466 21.5723 1.42402 21.5723C0.520984 21.5723 0.0347323 21.1214 0.0347323 20.185C0 13.9422 0 7.63006 0 1.3526C0 0.485549 0.486252 0 1.35456 0C5.07091 0 8.78726 0 12.5036 0C12.8162 0 13.0941 0.104046 13.3025 0.346821C14.1013 1.14451 14.9001 1.9422 15.699 2.73988C15.9074 2.94798 16.0116 3.19075 16.0116 3.50289C16.0116 4.12717 16.0116 4.75145 16.0116 5.37572C16.0116 5.54913 16.081 5.58382 16.22 5.65318C19.2417 6.69364 21.152 8.77457 21.8466 11.896C22.3676 14.185 21.8813 16.3353 20.5962 18.3121C20.5615 18.3815 20.492 18.4509 20.4226 18.5896C20.492 18.6243 20.5615 18.6936 20.631 18.7283C21.6035 19.6994 22.576 20.6358 23.5137 21.6069C23.7221 21.815 23.8611 22.0925 24.0347 22.3353C24.0347 22.474 24.0347 22.6127 24.0347 22.7514C23.7569 23.341 23.3401 23.7572 22.7844 24C22.6107 24 22.4718 24 22.3329 24ZM21.2214 13.5607C21.1867 9.36416 17.7829 5.96532 13.5456 6C9.34298 6.03468 5.97395 9.43353 6.00868 13.6647C6.04342 17.7919 9.48191 21.2254 13.6151 21.1908C17.8524 21.1561 21.2214 17.7572 21.2214 13.5607ZM9.27352 20.7746C5.62663 18.5896 4.48046 14.2197 5.66136 10.8902C6.25181 9.22543 7.22431 7.87283 8.64834 6.83237C10.6281 5.41041 12.8162 4.92486 15.2127 5.34104C15.2127 4.75145 15.2127 4.19653 15.2127 3.60694C14.6918 3.60694 14.2055 3.60694 13.6845 3.60694C12.9551 3.60694 12.4342 3.12139 12.4342 2.39306C12.4342 1.9422 12.4342 1.52601 12.4342 1.07514C12.4342 1.00578 12.4342 0.901734 12.4342 0.83237C12.33 0.83237 12.2605 0.83237 12.191 0.83237C8.6136 0.83237 5.00145 0.83237 1.42402 0.83237C0.903039 0.797688 0.798842 0.901734 0.798842 1.38728C0.798842 7.66474 0.798842 13.9422 0.798842 20.2197C0.798842 20.6705 0.903039 20.8092 1.38929 20.8092C3.92475 20.8092 6.4602 20.8092 8.99566 20.8092C9.06512 20.7746 9.13459 20.7746 9.27352 20.7746ZM19.1722 19.9075C19.2069 19.9422 19.2764 20.0116 19.3111 20.0809C19.7974 20.5665 20.3184 21.0867 20.8046 21.5723C21.2909 22.0578 21.7771 22.5434 22.2634 22.9942C22.5065 23.237 22.576 23.237 22.7844 22.9942C22.8538 22.9249 22.9233 22.8555 23.0275 22.7514C23.2706 22.5087 23.2706 22.4393 23.0275 22.1965C22.055 21.2254 21.0478 20.2197 20.0753 19.2486C20.0405 19.2139 19.9711 19.1445 19.9363 19.1445C19.6585 19.422 19.4153 19.6647 19.1722 19.9075ZM13.233 1.42197C13.233 1.76879 13.1983 2.11561 13.233 2.46243C13.233 2.56647 13.4067 2.73988 13.4761 2.77457C13.8234 2.80925 14.2055 2.77457 14.5528 2.77457C14.136 2.3237 13.6845 1.87283 13.233 1.42197Z" fill="#3A3A3A"/>
<path d="M20.4227 13.1098C20.4227 17.0636 17.8525 19.9422 14.3793 20.3237C10.7671 20.7399 7.46755 18.2081 6.91183 14.6012C6.32138 10.8208 8.99577 7.28323 12.7816 6.83237C13.0247 6.79768 13.2678 6.79768 13.511 6.79768C13.8236 6.79768 14.032 6.93641 14.032 7.17919C14.032 7.42196 13.8583 7.56069 13.511 7.56069C11.2881 7.66474 9.58622 8.63583 8.44005 10.5087C6.28665 14.1156 8.44005 18.6936 12.5732 19.4566C15.977 20.0462 19.1723 17.6879 19.5891 14.2543C19.9017 11.4451 18.304 8.84393 15.6644 7.90751C15.5949 7.87283 15.5602 7.87283 15.4907 7.83815C15.2823 7.7341 15.1781 7.52601 15.2823 7.3526C15.3518 7.1445 15.5602 7.04046 15.7686 7.10982C16.1506 7.24855 16.5327 7.38728 16.88 7.59537C19.1376 8.91329 20.3185 10.9595 20.4227 13.1098Z" fill="#3A3A3A"/>
<path d="M12.365 15.3988C12.9902 14.5665 13.5807 13.8035 14.1711 13.0058C14.6574 12.3468 15.1783 11.6878 15.6646 11.0289C15.7688 10.8902 15.9425 10.7514 16.1161 10.8555C16.2551 10.9248 16.394 11.0289 16.4287 11.1676C16.4634 11.2717 16.394 11.4451 16.2898 11.5491C15.4562 12.6589 14.6226 13.7688 13.7891 14.8786C13.4765 15.2948 13.1291 15.7457 12.8166 16.1618C12.5734 16.474 12.365 16.474 12.0872 16.1965C11.7399 15.8497 11.3925 15.5029 11.0105 15.1214C10.7674 14.9133 10.7674 14.7052 10.941 14.5318C11.1147 14.3584 11.3578 14.3584 11.5662 14.5665C11.8093 14.8439 12.0872 15.0867 12.365 15.3988Z" fill="#3A3A3A"/>
<path d="M6.80791 4.78612C5.55755 4.78612 4.27245 4.78612 3.02209 4.78612C2.91789 4.78612 2.84843 4.78612 2.74423 4.78612C2.53584 4.75144 2.43164 4.61271 2.43164 4.4393C2.43164 4.26589 2.50111 4.09248 2.67477 4.0578C2.74423 4.02312 2.84843 4.02312 2.95262 4.02312C5.52281 4.02312 8.093 4.02312 10.6979 4.02312C10.7674 4.02312 10.8716 4.02312 10.941 4.0578C11.1147 4.12716 11.2189 4.26589 11.2189 4.4393C11.2189 4.64739 11.08 4.78612 10.9063 4.8208C10.8369 4.8208 10.7327 4.8208 10.6632 4.8208C9.34336 4.78612 8.05827 4.78612 6.80791 4.78612Z" fill="#3A3A3A"/>
<path d="M6.80779 2.01157C8.09288 2.01157 9.41271 2.01157 10.6978 2.01157C10.8367 2.01157 10.9757 2.04625 11.0799 2.11561C11.1493 2.18498 11.2188 2.35839 11.2188 2.49712C11.1841 2.60116 11.0799 2.70521 10.9409 2.77457C10.8715 2.80925 10.7325 2.80925 10.6283 2.80925C8.09288 2.80925 5.52269 2.80925 2.98724 2.80925C2.95251 2.80925 2.91777 2.80925 2.88304 2.80925C2.60518 2.80925 2.39679 2.63584 2.43152 2.39307C2.43152 2.15029 2.60518 2.01157 2.88304 2.01157C4.16814 2.01157 5.48796 2.01157 6.80779 2.01157Z" fill="#3A3A3A"/>
<path d="M5.00141 6.79769C4.30676 6.79769 3.61211 6.79769 2.88274 6.79769C2.57015 6.79769 2.39648 6.62428 2.39648 6.3815C2.39648 6.13873 2.57015 6 2.88274 6C4.30676 6 5.69605 6 7.12007 6C7.43266 6 7.60633 6.13873 7.60633 6.3815C7.60633 6.62428 7.43266 6.79769 7.12007 6.79769C6.3907 6.79769 5.69605 6.79769 5.00141 6.79769Z" fill="#3A3A3A"/>
<path d="M3.99407 8.80925C3.61201 8.80925 3.22996 8.80925 2.81317 8.80925C2.63951 8.80925 2.46585 8.73989 2.43111 8.5318C2.39638 8.39307 2.46585 8.21966 2.53531 8.11561C2.57004 8.04625 2.70897 8.01157 2.81317 8.01157C3.57728 8.01157 4.34139 8.01157 5.14023 8.01157C5.41809 8.01157 5.55702 8.15029 5.59175 8.39307C5.59175 8.63584 5.41809 8.80925 5.17496 8.80925C4.75818 8.80925 4.37612 8.80925 3.99407 8.80925Z" fill="#3A3A3A"/>
<path d="M3.99459 18.7977C3.61254 18.7977 3.23048 18.7977 2.88316 18.7977C2.6053 18.7977 2.43164 18.6243 2.43164 18.4162C2.43164 18.1734 2.6053 18 2.91789 18C3.682 18 4.44611 18 5.17549 18C5.45335 18 5.62701 18.1387 5.62701 18.3815C5.62701 18.6243 5.45335 18.7977 5.17549 18.7977C4.7587 18.7977 4.37665 18.7977 3.99459 18.7977Z" fill="#3A3A3A"/>
<path d="M3.61211 10.7861C3.36899 10.7861 3.09113 10.7861 2.848 10.7861C2.57015 10.7861 2.43122 10.6127 2.39648 10.4046C2.39648 10.1965 2.57015 9.98843 2.81327 9.98843C3.33426 9.98843 3.85524 9.98843 4.37622 9.98843C4.65408 9.98843 4.79301 10.1618 4.79301 10.4046C4.79301 10.6474 4.61935 10.7861 4.37622 10.7861H4.34149C4.06363 10.7861 3.85524 10.7861 3.61211 10.7861Z" fill="#3A3A3A"/>
<path d="M3.61254 16.7861C3.36941 16.7861 3.09155 16.7861 2.84843 16.7861C2.57057 16.7861 2.43164 16.6127 2.43164 16.4046C2.43164 16.1965 2.6053 16.0231 2.84843 16.0231C3.36941 16.0231 3.8904 16.0231 4.41138 16.0231C4.68924 16.0231 4.82817 16.1965 4.82817 16.4393C4.82817 16.6821 4.65451 16.8208 4.41138 16.8208H4.37665C4.09879 16.7861 3.85566 16.7861 3.61254 16.7861Z" fill="#3A3A3A"/>
<path d="M3.40414 14.0116C3.61254 14.0116 3.82093 14.0116 4.02933 14.0116C4.23772 14.0116 4.41138 14.185 4.41138 14.3931C4.41138 14.6012 4.27245 14.8093 4.06406 14.8093C3.64727 14.8439 3.19575 14.8093 2.77896 14.8093C2.57057 14.8093 2.43164 14.6012 2.43164 14.3931C2.43164 14.185 2.6053 14.0116 2.8137 14.0116C2.98736 13.9769 3.19575 14.0116 3.40414 14.0116Z" fill="#3A3A3A"/>
<path d="M3.36899 12.7977C3.19533 12.7977 2.98693 12.7977 2.81327 12.7977C2.57015 12.7977 2.39648 12.6243 2.39648 12.3815C2.39648 12.1734 2.57015 12 2.81327 12C3.19533 12 3.57738 12 3.99417 12C4.23729 12 4.41096 12.1734 4.41096 12.4162C4.41096 12.6243 4.23729 12.7977 3.99417 12.7977C3.78578 12.7977 3.57738 12.7977 3.36899 12.7977Z" fill="#3A3A3A"/>
</g>
<defs>
<clipPath id="clip0_360_34">
<rect width="24" height="24" fill="white"/>
</clipPath>
</defs>
</svg>
