<svg width="14" height="13" viewBox="0 0 14 13" fill="none" xmlns="http://www.w3.org/2000/svg">
<path d="M3.14998 4.68421C3.78156 4.68421 4.44321 4.68421 5.07479 4.68421C5.25524 4.68421 5.34547 4.62405 5.43569 4.4436C5.82667 3.21052 6.21765 2.00751 6.60863 0.804506C6.6387 0.744355 6.6387 0.624055 6.69885 0.59398C6.78908 0.503754 6.90938 0.383453 7.02968 0.383453C7.14998 0.383453 7.27028 0.503754 7.39058 0.59398C7.45073 0.65413 7.45073 0.744355 7.48081 0.804506C7.87179 2.00751 8.26276 3.21052 8.65374 4.4436C8.71389 4.65413 8.80412 4.71428 9.01464 4.68421C10.3079 4.68421 11.6011 4.68421 12.8943 4.68421C13.0447 4.68421 13.2252 4.74436 13.3154 4.83458C13.4958 4.98496 13.4357 5.25563 13.1951 5.43609C12.1725 6.18796 11.1199 6.93984 10.0973 7.69172C9.73645 7.9624 9.76652 7.81202 9.9169 8.26315C10.2477 9.43608 10.6387 10.6391 11.0297 11.8421C11.0898 12.0526 11.1199 12.2331 10.9094 12.3835C10.6989 12.5338 10.5184 12.4436 10.368 12.3233C9.31539 11.5714 8.26276 10.7895 7.21013 10.0376C7.05975 9.91729 6.96953 9.91729 6.81915 10.0376C5.76652 10.8195 4.71389 11.5714 3.66126 12.3534C3.51088 12.4737 3.33043 12.5338 3.14998 12.4436C2.96953 12.3534 2.93945 12.1729 3.02968 11.9023C3.42066 10.6992 3.81163 9.49623 4.20261 8.29323C4.35299 7.87218 4.38306 7.99248 4.02216 7.7218C2.9996 6.96992 1.97705 6.21804 0.95449 5.49624C0.774039 5.37594 0.653739 5.22556 0.713889 4.98496C0.804115 4.77443 0.984566 4.74436 1.19509 4.74436C1.82667 4.68421 2.48833 4.68421 3.14998 4.68421ZM9.94697 11.0601C9.9169 10.9398 9.88682 10.8797 9.88682 10.8195C9.58607 9.85714 9.28532 8.92481 8.95449 7.9624C8.86427 7.66165 8.89434 7.54135 9.16502 7.3609C9.76652 6.90977 10.368 6.48872 10.9695 6.06766C11.2402 5.88721 11.4808 5.70676 11.7816 5.46616C11.6613 5.46616 11.571 5.46616 11.5109 5.46616C10.5485 5.46616 9.58607 5.46616 8.59359 5.46616C8.20261 5.46616 8.14246 5.40601 8.02216 5.04511C7.72141 4.11278 7.42066 3.21052 7.1199 2.27819C7.08983 2.21804 7.05975 2.12781 7.02968 2.00751C6.96953 2.15789 6.96953 2.21804 6.93945 2.30827C6.6387 3.2406 6.33795 4.17293 6.0372 5.07518C5.94697 5.37593 5.82667 5.46616 5.49585 5.46616C4.53344 5.46616 3.54096 5.46616 2.57855 5.46616C2.48833 5.46616 2.42817 5.46616 2.33795 5.46616C3.18005 6.12781 4.02216 6.72932 4.86427 7.3609C5.16502 7.6015 5.19509 7.66165 5.07479 8.02255C4.77404 8.95488 4.47329 9.91729 4.17254 10.8496C4.14246 10.9098 4.14246 10.9699 4.11239 11.0601C4.20261 11 4.26276 10.9699 4.32291 10.9098C5.07479 10.3684 5.85675 9.79699 6.60863 9.25563C6.9996 8.95488 7.05976 8.95488 7.45073 9.25563C8.23269 9.82706 9.07479 10.4286 9.94697 11.0601Z" fill="#3A3A3A"/>
</svg>
