<svg width="20" height="12" viewBox="0 0 20 12" fill="none" xmlns="http://www.w3.org/2000/svg">
<path d="M18.9998 1C19.0093 0.93032 19.0093 0.85968 18.9998 0.79C18.9911 0.731289 18.9743 0.674074 18.9498 0.62C18.9234 0.571127 18.8933 0.524327 18.8598 0.48C18.8218 0.416753 18.7746 0.359469 18.7198 0.31L18.5998 0.24C18.5421 0.196956 18.478 0.163215 18.4098 0.14H18.2098C18.1489 0.080995 18.0777 0.0335575 17.9998 0H12.9998C12.7346 0 12.4802 0.105357 12.2927 0.292893C12.1052 0.48043 11.9998 0.734784 11.9998 1C11.9998 1.26522 12.1052 1.51957 12.2927 1.70711C12.4802 1.89464 12.7346 2 12.9998 2H15.8298L11.8298 6.71L7.50981 4.14C7.30519 4.0183 7.06387 3.97359 6.82923 4.01392C6.5946 4.05425 6.38205 4.17696 6.22981 4.36L1.22981 10.36C1.14561 10.461 1.08217 10.5777 1.04312 10.7033C1.00408 10.8289 0.990194 10.961 1.00227 11.092C1.01435 11.2229 1.05214 11.3503 1.11349 11.4666C1.17485 11.5829 1.25855 11.6861 1.35981 11.77C1.53972 11.9191 1.76616 12.0005 1.99981 12C2.14672 12.0002 2.29188 11.9681 2.42496 11.9059C2.55804 11.8437 2.67578 11.7529 2.76981 11.64L7.21981 6.3L11.4898 8.86C11.6923 8.98013 11.9308 9.02493 12.1631 8.98651C12.3954 8.9481 12.6067 8.82893 12.7598 8.65L16.9998 3.7V6C16.9998 6.26522 17.1052 6.51957 17.2927 6.70711C17.4802 6.89464 17.7346 7 17.9998 7C18.265 7 18.5194 6.89464 18.7069 6.70711C18.8945 6.51957 18.9998 6.26522 18.9998 6V1Z" fill="#3A3A3A"/>
</svg>
